HIERARCHY
ROOT Hips
{
 OFFSET 0.000000 0.000000 0.000000
 CHANNELS 6 Xposition Yposition Zposition Yrotation Xrotation Zrotation
 JOINT Chest
 {
  OFFSET 0.000000 12.953391 -0.028419
  CHANNELS 3 Yrotation Xrotation Zrotation
  JOINT Chest2
  {
   OFFSET 0.000000 10.280254 0.051622
   CHANNELS 3 Yrotation Xrotation Zrotation
   JOINT Chest3
   {
    OFFSET 0.000000 9.287180 0.000000
    CHANNELS 3 Yrotation Xrotation Zrotation
    JOINT Chest4
    {
     OFFSET 0.000000 9.287180 0.000000
     CHANNELS 3 Yrotation Xrotation Zrotation
     JOINT Neck
     {
      OFFSET 0.000000 13.296264 0.000000
      CHANNELS 3 Yrotation Xrotation Zrotation
      JOINT Head
      {
       OFFSET 0.000000 8.959264 0.099003
       CHANNELS 3 Yrotation Xrotation Zrotation
       End Site
       {
        OFFSET 0.000000 17.121337 0.039303
       }
      }
     }
     JOINT RightCollar
     {
      OFFSET -3.193511 7.451388 0.000000
      CHANNELS 3 Yrotation Xrotation Zrotation
      JOINT RightShoulder
      {
       OFFSET -15.792092 0.000000 0.000000
       CHANNELS 3 Yrotation Xrotation Zrotation
       JOINT RightElbow
       {
        OFFSET -31.151839 0.000000 0.000000
        CHANNELS 3 Yrotation Xrotation Zrotation
        JOINT RightWrist
        {
         OFFSET -25.536298 0.000000 0.002321
         CHANNELS 3 Yrotation Xrotation Zrotation
         End Site
         {
          OFFSET -19.133213 0.000000 0.000000
         }
        }
       }
      }
     }
     JOINT LeftCollar
     {
      OFFSET 3.193511 7.451388 0.000000
      CHANNELS 3 Yrotation Xrotation Zrotation
      JOINT LeftShoulder
      {
       OFFSET 15.792092 0.000000 0.000000
       CHANNELS 3 Yrotation Xrotation Zrotation
       JOINT LeftElbow
       {
        OFFSET 31.151839 0.000000 0.000000
        CHANNELS 3 Yrotation Xrotation Zrotation
        JOINT LeftWrist
        {
         OFFSET 25.536298 0.000000 0.002321
         CHANNELS 3 Yrotation Xrotation Zrotation
         End Site
         {
          OFFSET 19.133213 0.000000 0.000000
         }
        }
       }
      }
     }
    }
   }
  }
 }
 JOINT RightHip
 {
  OFFSET -10.745749 0.139252 0.014209
  CHANNELS 3 Yrotation Xrotation Zrotation
  JOINT RightKnee
  {
   OFFSET 0.000000 -43.743899 -0.006071
   CHANNELS 3 Yrotation Xrotation Zrotation
   JOINT RightAnkle
   {
    OFFSET 0.000000 -43.214199 0.089931
    CHANNELS 3 Yrotation Xrotation Zrotation
    JOINT RightToe
    {
     OFFSET 0.000000 -9.699830 19.151588
     CHANNELS 3 Yrotation Xrotation Zrotation
     End Site
     {
      OFFSET 0.000000 -1.292898 4.893873
     }
    }
   }
  }
 }
 JOINT LeftHip
 {
  OFFSET 10.745749 0.139252 0.014209
  CHANNELS 3 Yrotation Xrotation Zrotation
  JOINT LeftKnee
  {
   OFFSET 0.000000 -43.743899 -0.006071
   CHANNELS 3 Yrotation Xrotation Zrotation
   JOINT LeftAnkle
   {
    OFFSET 0.000000 -43.214199 0.089931
    CHANNELS 3 Yrotation Xrotation Zrotation
    JOINT LeftToe
    {
     OFFSET 0.000000 -9.699830 19.151588
     CHANNELS 3 Yrotation Xrotation Zrotation
     End Site
     {
      OFFSET 0.000000 -1.292898 4.893873
     }
    }
   }
  }
 }
}
MOTION
Frames: 5
Frame Time: 0.016667
-66.306202 92.321528 -75.682546 -8.671783 -2.645536 -5.378263 3.222826 6.558912 -0.650088 1.439153 2.910518 -0.334058 1.439153 2.910518 -0.334058 1.080725 2.182118 -0.257350 9.220552 18.382933 -6.833081 19.059609 -0.311350 -15.422978 1.086632 -3.016254 5.465104 -8.813114 21.807637 51.672915 94.551661 21.595478 41.995921 35.081189 23.847093 -9.637999 -2.186304 -4.565236 -4.196790 11.391801 20.341677 -52.649345 -109.527175 40.240428 -54.733032 -20.777733 16.378400 29.982028 -11.577564 -17.088252 -8.949069 1.645992 71.345752 -0.163275 -5.632839 10.818168 -0.978086 0.000000 -0.000000 0.000000 9.715364 -15.480123 -10.636980 -1.929505 40.169639 -0.819582 -0.286577 -18.186876 11.867611 0.000000 -0.000000 0.000000
-66.703581 92.249047 -73.604558 -8.693065 -2.944350 -5.346630 3.271107 6.892401 -0.787532 1.462887 3.057706 -0.398014 1.462912 3.057696 -0.398011 1.098931 2.292323 -0.305765 9.511596 18.125821 -7.130655 19.723313 -0.653309 -16.096725 0.924897 -3.071807 5.540135 -8.774444 21.658274 51.625554 94.815975 21.647079 42.061513 34.499912 24.255828 -10.065549 -2.225716 -4.630004 -4.005200 11.778923 20.530442 -52.640960 -109.544332 39.617905 -54.750927 -19.776484 16.581405 30.522830 -13.390513 -19.366254 -7.208318 2.233991 70.323414 -2.628910 -8.257531 7.550821 -4.117653 -0.000000 0.000000 -0.000000 9.004412 -13.941651 -10.324971 -1.436705 40.391291 -0.656819 -0.206889 -19.734074 11.556651 0.000977 0.257192 -0.269351
-67.041326 92.414340 -71.518387 -8.901239 -3.309025 -5.375566 3.375002 7.265837 -0.851494 1.510304 3.223045 -0.430585 1.510332 3.223044 -0.430580 1.134740 2.416232 -0.330823 9.847805 17.910435 -7.484469 20.480720 -0.889589 -16.880246 0.652723 -3.291375 5.545058 -8.916935 21.617817 51.171711 95.419777 21.315791 42.429693 33.359349 24.742619 -10.900564 -2.344887 -4.884138 -3.674583 12.255921 21.089368 -52.551973 -109.204450 38.323882 -54.684676 -17.993879 16.899070 31.416611 -16.173935 -21.275405 -4.612647 2.706464 68.031050 -6.199059 -9.784033 4.070688 -6.842349 -0.000000 -0.000000 0.000000 8.757180 -11.858280 -10.046614 -1.259692 39.759477 -0.356688 -0.132901 -20.793103 10.942610 0.001476 0.514388 -0.538698
-67.359730 92.774615 -69.465305 -8.881837 -3.557450 -5.497435 3.394609 7.568234 -0.874297 1.519614 3.357219 -0.443174 1.519614 3.357219 -0.443174 1.141821 2.516833 -0.340644 10.186547 17.712063 -7.777317 21.222792 -1.101822 -17.552207 0.288321 -3.618548 5.559147 -9.219502 21.544470 50.787349 96.013500 21.038319 42.831514 32.478565 25.058076 -11.476072 -2.572943 -5.113245 -3.347914 12.674075 21.567161 -52.558833 -108.934698 37.311665 -54.662413 -16.513462 17.072413 32.137538 -18.114853 -22.594787 -2.199248 3.169075 64.629583 -8.556481 -10.540448 1.500238 -8.299900 0.000000 -0.000000 0.000000 8.592521 -9.804061 -9.686593 -1.240493 38.811386 -0.034261 -0.221454 -21.114748 10.175767 0.000000 -0.000000 0.000000
-67.669515 93.371679 -67.478362 -8.453664 -3.580433 -5.755494 3.253268 7.746628 -0.855423 1.456785 3.436882 -0.433721 1.456774 3.436877 -0.433728 1.094689 2.576645 -0.333407 10.532799 17.519817 -7.951795 21.943463 -1.325466 -18.011315 -0.214999 -4.072223 5.623301 -9.644802 21.391895 50.656227 96.427070 20.957804 43.173794 32.220057 25.096626 -11.482191 -2.953635 -5.285403 -3.066985 12.990112 21.856434 -52.787115 -108.836229 36.995075 -54.679524 -15.758790 16.989434 32.396340 -18.522745 -23.349081 -0.267515 2.048205 59.738684 -10.361125 -11.048105 0.480751 -7.759195 0.000000 -0.000000 0.000000 8.502892 -7.904855 -9.187544 -1.505106 37.488402 0.293106 -0.604401 -20.514641 9.305671 -0.021912 -1.707685 2.034521
